<?xml version="1.0" encoding="UTF-8" standalone="no"?>
<!-- Created with Inkscape (http://www.inkscape.org/) -->
<svg xmlns:svg="http://www.w3.org/2000/svg" xmlns="http://www.w3.org/2000/svg" width="500" height="250">
<g id="greenlayer">
	<g id="g22">
		<g id="g24">
			<g id="g26">
				<path d="m 464.1,187.1 v 0.7 c 9.4,-10.5 16.6,-23.5 21.5,-39.1 4.9,-15.8 7.2,-33.6 7.2,-53.7 0,-19.96 -2.3,-37.78 -7.3,-53.45 C 480.7,25.87 473.6,12.82 464.1,2.402 v 0.68 c -0.6,-0.09 -1.1,-0.09 -1.7,-0.09 H 284.7 c -0.7,0 -1.4,0 -2,0.09 V 2.4 c -9.4,10.42 -16.6,23.47 -21.4,39.15 -4.9,15.67 -7.4,33.49 -7.4,53.45 0,20.1 2.4,38 7.3,53.7 4.8,15.6 12,28.6 21.5,39.1 v -0.7 c 0.6,0 1.3,0.1 2,0.1 h 177.7 c 0.6,0 1.1,-0.1 1.7,-0.1 z M 282.7,2.41 H 464.1 M 282.7,187.8 h 181.4" id="path28" style="fill:#39ac4c;fill-opacity:0.3216" />
				<path d="m 464.1,187.1 v 0.7 c 9.4,-10.5 16.6,-23.5 21.5,-39.1 4.9,-15.8 7.2,-33.6 7.2,-53.7 0,-19.96 -2.3,-37.78 -7.3,-53.45 C 480.7,25.87 473.6,12.82 464.1,2.402 v 0.68 c -0.6,-0.09 -1.1,-0.09 -1.7,-0.09 H 284.7 c -0.7,0 -1.4,0 -2,0.09 V 2.4 c -9.4,10.42 -16.6,23.47 -21.4,39.15 -4.9,15.67 -7.4,33.49 -7.4,53.45 0,20.1 2.4,38 7.3,53.7 4.8,15.6 12,28.6 21.5,39.1 v -0.7 c 0.6,0 1.3,0.1 2,0.1 h 177.7 c 0.6,0 1.1,-0.1 1.7,-0.1 z M 282.7,2.41 H 464.1 M 282.7,187.8 h 181.4" id="path30" style="fill:none" />
			</g>
			<path d="m 464.1,187.1 v 0.7 c 9.4,-10.5 16.6,-23.5 21.5,-39.1 4.9,-15.8 7.2,-33.6 7.2,-53.7 0,-19.96 -2.3,-37.78 -7.3,-53.45 C 480.7,25.87 473.6,12.82 464.1,2.402 v 0.68 c -0.6,-0.09 -1.1,-0.09 -1.7,-0.09 H 284.7 c -0.7,0 -1.4,0 -2,0.09 V 2.4 c -9.4,10.42 -16.6,23.47 -21.4,39.15 -4.9,15.67 -7.4,33.49 -7.4,53.45 0,20.1 2.4,38 7.3,53.7 4.8,15.6 12,28.6 21.5,39.1 v -0.7 c 0.6,0 1.3,0.1 2,0.1 h 177.7 c 0.6,0 1.1,-0.1 1.7,-0.1 z M 282.7,2.41 H 464.1 M 282.7,187.8 h 181.4" id="path32" style="fill:none" />
		</g>
		<path d="m 464.1,187.1 v 0.7 c 9.4,-10.5 16.6,-23.5 21.5,-39.1 4.9,-15.8 7.2,-33.6 7.2,-53.7 0,-19.96 -2.3,-37.78 -7.3,-53.45 C 480.7,25.87 473.6,12.82 464.1,2.402 v 0.68 c -0.6,-0.09 -1.1,-0.09 -1.7,-0.09 H 284.7 c -0.7,0 -1.4,0 -2,0.09 V 2.4 c -9.4,10.42 -16.6,23.47 -21.4,39.15 -4.9,15.67 -7.4,33.49 -7.4,53.45 0,20.1 2.4,38 7.3,53.7 4.8,15.6 12,28.6 21.5,39.1 v -0.7 c 0.6,0 1.3,0.1 2,0.1 h 177.7 c 0.6,0 1.1,-0.1 1.7,-0.1 z M 282.7,2.41 H 464.1 M 282.7,187.8 h 181.4" id="path34" style="fill:none" />
	</g>
	<path d="m 282.7,4.84 c -7.3,9.06 -12.7,21.03 -16.3,35.83 -3.5,14.71 -5.3,32.82 -5.3,54.33 0,21.1 1.8,39.2 5.3,54 3.6,14.6 8.9,26.7 16.3,36 v 2.8 C 273.2,177.3 266,164.3 261.2,148.7 256.3,133 253.9,115.1 253.9,95 c 0,-19.96 2.5,-37.78 7.4,-53.45 4.8,-15.68 12,-28.73 21.4,-39.148 V 4.84 l 0,0 0,0 z" id="path36" style="fill:#39ac4c" />
	<path d="m 464.1,4.84 c 7.2,9.06 12.7,21.03 16.3,35.83 3.6,14.71 5.3,32.82 5.3,54.33 0,21.1 -1.7,39.2 -5.3,54 -3.5,14.6 -8.9,26.7 -16.3,36 v 2.8 c 9.4,-10.5 16.6,-23.5 21.5,-39.1 4.9,-15.7 7.2,-33.6 7.2,-53.7 0,-19.96 -2.3,-37.78 -7.3,-53.45 C 480.7,25.87 473.6,12.82 464.1,2.402 l 0,2.438 0,0 0,0 z" id="path38" style="fill:#39ac4c" />
	<g id="greennumbers">
		<path d="m 441.4,57.17 c -2.4,0 -4.5,-0.92 -6.2,-2.76 -1.7,-1.83 -2.9,-4.08 -3.8,-6.74 -0.8,-2.67 -1.2,-5.19 -1.2,-7.59 0,-2.36 0.4,-4.87 1.2,-7.52 0.8,-2.65 2.1,-4.9 3.8,-6.73 1.7,-1.83 3.8,-2.76 6.2,-2.76 2.4,0 4.5,0.93 6.2,2.76 1.7,1.83 2.9,4.08 3.8,6.73 0.8,2.65 1.2,5.16 1.2,7.52 0,2.4 -0.4,4.92 -1.2,7.59 -0.9,2.66 -2.1,4.91 -3.8,6.74 -1.7,1.84 -3.8,2.76 -6.2,2.76 z m 0,-3.33 c 1.8,0 3.2,-0.82 4.3,-2.48 1.1,-1.64 2,-3.59 2.5,-5.81 0.5,-2.23 0.7,-4.26 0.7,-6.1 0,-1.71 -0.2,-3.57 -0.7,-5.6 -0.6,-2.01 -1.4,-3.75 -2.5,-5.23 -1.2,-1.48 -2.6,-2.22 -4.3,-2.22 -1.7,0 -3.1,0.74 -4.2,2.22 -1.2,1.48 -2,3.22 -2.5,5.23 -0.5,2.03 -0.8,3.89 -0.8,5.6 0,1.8 0.3,3.82 0.8,6.04 0.4,2.23 1.3,4.18 2.4,5.85 1.1,1.67 2.5,2.5 4.3,2.5 z" id="path41" style="fill:#39ac4c;fill-opacity:0.851" />
		<path d="m 441.4,111 c -2.4,0 -4.5,-0.9 -6.2,-2.7 -1.7,-1.9 -2.9,-4.1 -3.8,-6.8 -0.8,-2.65 -1.2,-5.17 -1.2,-7.57 0,-2.36 0.4,-4.87 1.2,-7.53 0.8,-2.64 2.1,-4.89 3.8,-6.72 1.7,-1.84 3.8,-2.76 6.2,-2.76 2.4,0 4.5,0.92 6.2,2.76 1.7,1.83 2.9,4.08 3.8,6.72 0.8,2.66 1.2,5.17 1.2,7.53 0,2.4 -0.4,4.92 -1.2,7.57 -0.9,2.7 -2.1,4.9 -3.8,6.8 -1.7,1.8 -3.8,2.7 -6.2,2.7 z m 0,-3.3 c 1.8,0 3.2,-0.8 4.3,-2.5 1.1,-1.6 2,-3.6 2.5,-5.81 0.5,-2.22 0.7,-4.25 0.7,-6.09 0,-1.72 -0.2,-3.58 -0.7,-5.6 -0.6,-2.01 -1.4,-3.76 -2.5,-5.23 -1.2,-1.48 -2.6,-2.22 -4.3,-2.22 -1.7,0 -3.1,0.74 -4.2,2.22 -1.2,1.47 -2,3.22 -2.5,5.23 -0.5,2.02 -0.8,3.88 -0.8,5.6 0,1.8 0.3,3.81 0.8,6.04 0.4,2.26 1.3,4.16 2.4,5.86 1.1,1.6 2.5,2.5 4.3,2.5 z" id="path43" style="fill:#39ac4c;fill-opacity:0.851" />
		<path d="m 307,57.17 c -2.4,0 -4.5,-0.92 -6.2,-2.76 -1.7,-1.83 -3,-4.08 -3.8,-6.74 -0.8,-2.67 -1.2,-5.19 -1.2,-7.59 0,-2.36 0.4,-4.87 1.2,-7.52 0.8,-2.65 2.1,-4.9 3.8,-6.73 1.7,-1.83 3.8,-2.76 6.2,-2.76 2.4,0 4.5,0.93 6.2,2.76 1.7,1.83 2.9,4.08 3.8,6.73 0.8,2.65 1.2,5.16 1.2,7.52 0,2.4 -0.4,4.92 -1.2,7.59 -0.9,2.66 -2.1,4.91 -3.8,6.74 -1.7,1.84 -3.8,2.76 -6.2,2.76 z m 0,-3.33 c 1.8,0 3.2,-0.82 4.3,-2.48 1.1,-1.64 2,-3.59 2.5,-5.81 0.5,-2.23 0.7,-4.26 0.7,-6.1 0,-1.71 -0.2,-3.57 -0.7,-5.6 -0.6,-2.01 -1.4,-3.75 -2.5,-5.23 -1.2,-1.48 -2.6,-2.22 -4.3,-2.22 -1.7,0 -3.1,0.74 -4.2,2.22 -1.2,1.48 -2,3.22 -2.5,5.23 -0.5,2.03 -0.8,3.89 -0.8,5.6 0,1.8 0.3,3.82 0.8,6.04 0.4,2.23 1.3,4.18 2.4,5.85 1.1,1.67 2.6,2.5 4.3,2.5 z" id="path45" style="fill:#39ac4c;fill-opacity:0.851" />
		<path d="m 365.4,54.81 v -0.45 c 0.1,-0.85 0.6,-1.33 1.4,-1.44 h 5.5 V 30.38 c -0.7,0.68 -1.6,1.24 -2.6,1.66 -0.9,0.43 -1.9,0.65 -2.9,0.65 -0.5,0 -0.8,-0.13 -1.1,-0.38 -0.3,-0.26 -0.5,-0.61 -0.6,-1.06 V 30.8 c 0.1,-0.86 0.6,-1.33 1.5,-1.44 1.4,0 2.7,-0.54 3.7,-1.61 1.1,-1.07 1.9,-2.38 2.5,-3.92 0.3,-0.55 0.7,-0.89 1.4,-1.02 h 0.4 c 0.8,0.11 1.3,0.58 1.4,1.44 v 28.67 h 5.5 c 0.9,0.11 1.3,0.59 1.5,1.44 v 0.45 c -0.2,0.86 -0.6,1.33 -1.5,1.44 h -14.7 c -0.7,-0.11 -1.2,-0.58 -1.4,-1.44 z" id="path47" style="fill:#39ac4c;fill-opacity:0.851" />
		<path d="m 307,166 c -2.4,0 -4.5,-0.9 -6.2,-2.7 -1.7,-1.9 -3,-4.1 -3.8,-6.8 -0.8,-2.6 -1.2,-5.2 -1.2,-7.5 0,-2.4 0.4,-4.9 1.2,-7.6 0.8,-2.6 2.1,-4.9 3.8,-6.7 1.7,-1.8 3.8,-2.8 6.2,-2.8 2.4,0 4.5,1 6.2,2.8 1.7,1.8 2.9,4.1 3.8,6.7 0.8,2.7 1.2,5.2 1.2,7.6 0,2.3 -0.4,4.9 -1.2,7.5 -0.9,2.7 -2.1,4.9 -3.8,6.8 -1.7,1.8 -3.8,2.7 -6.2,2.7 z m 0,-3.3 c 1.8,0 3.2,-0.8 4.3,-2.5 1.1,-1.6 2,-3.6 2.5,-5.8 0.5,-2.2 0.7,-4.2 0.7,-6.1 0,-1.7 -0.2,-3.6 -0.7,-5.6 -0.6,-2 -1.4,-3.7 -2.5,-5.2 -1.2,-1.5 -2.6,-2.2 -4.3,-2.2 -1.7,0 -3.1,0.7 -4.2,2.2 -1.2,1.5 -2,3.2 -2.5,5.2 -0.5,2 -0.8,3.9 -0.8,5.6 0,1.8 0.3,3.8 0.8,6.1 0.4,2.2 1.3,4.1 2.4,5.8 1.1,1.7 2.6,2.5 4.3,2.5 z" id="path51" style="fill:#39ac4c;fill-opacity:0.851" />
		<path d="m 374.2,111 c -2.4,0 -4.5,-0.9 -6.2,-2.7 -1.7,-1.9 -3,-4.1 -3.8,-6.8 -0.8,-2.65 -1.2,-5.17 -1.2,-7.57 0,-2.36 0.4,-4.87 1.2,-7.53 0.8,-2.64 2.1,-4.89 3.8,-6.72 1.7,-1.84 3.8,-2.76 6.2,-2.76 2.4,0 4.5,0.92 6.2,2.76 1.7,1.83 2.9,4.08 3.8,6.72 0.8,2.66 1.2,5.17 1.2,7.53 0,2.4 -0.4,4.92 -1.2,7.57 -0.9,2.7 -2.1,4.9 -3.8,6.8 -1.7,1.8 -3.8,2.7 -6.2,2.7 z m 0,-3.3 c 1.8,0 3.2,-0.8 4.3,-2.5 1.1,-1.6 2,-3.6 2.5,-5.81 0.5,-2.22 0.7,-4.25 0.7,-6.09 0,-1.72 -0.2,-3.58 -0.7,-5.6 -0.6,-2.01 -1.4,-3.76 -2.5,-5.23 -1.2,-1.48 -2.6,-2.22 -4.3,-2.22 -1.7,0 -3.1,0.74 -4.2,2.22 -1.2,1.47 -2,3.22 -2.5,5.23 -0.5,2.02 -0.8,3.88 -0.8,5.6 0,1.8 0.3,3.81 0.8,6.04 0.4,2.26 1.3,4.16 2.4,5.86 1.1,1.6 2.6,2.5 4.3,2.5 z" id="path53" style="fill:#39ac4c;fill-opacity:0.851" />
		<path d="m 441.4,166.9 c -2.4,0 -4.5,-0.9 -6.2,-2.7 -1.7,-1.9 -2.9,-4.1 -3.8,-6.8 -0.8,-2.7 -1.2,-5.2 -1.2,-7.6 0,-2.3 0.4,-4.8 1.2,-7.5 0.8,-2.6 2.1,-4.9 3.8,-6.7 1.7,-1.9 3.8,-2.8 6.2,-2.8 2.4,0 4.5,0.9 6.2,2.8 1.7,1.8 2.9,4.1 3.8,6.7 0.8,2.6 1.2,5.2 1.2,7.5 0,2.4 -0.4,4.9 -1.2,7.6 -0.9,2.7 -2.1,4.9 -3.8,6.8 -1.7,1.8 -3.8,2.7 -6.2,2.7 z m 0,-3.3 c 1.8,0 3.2,-0.8 4.3,-2.5 1.1,-1.6 2,-3.6 2.5,-5.8 0.5,-2.2 0.7,-4.3 0.7,-6.1 0,-1.7 -0.2,-3.6 -0.7,-5.6 -0.6,-2 -1.4,-3.8 -2.5,-5.2 -1.2,-1.5 -2.6,-2.3 -4.3,-2.3 -1.7,0 -3.1,0.8 -4.2,2.3 -1.2,1.4 -2,3.2 -2.5,5.2 -0.5,2 -0.8,3.9 -0.8,5.6 0,1.8 0.3,3.8 0.8,6 0.4,2.3 1.3,4.2 2.4,5.9 1.1,1.7 2.5,2.5 4.3,2.5 z" id="path55" style="fill:#39ac4c;fill-opacity:0.851" />
		<path d="m 374.2,167.4 c -2.4,0 -4.5,-0.9 -6.2,-2.7 -1.7,-1.9 -3,-4.1 -3.8,-6.8 -0.8,-2.6 -1.2,-5.2 -1.2,-7.6 0,-2.3 0.4,-4.8 1.2,-7.5 0.8,-2.6 2.1,-4.9 3.8,-6.7 1.7,-1.9 3.8,-2.8 6.2,-2.8 2.4,0 4.5,0.9 6.1,2.8 1.7,1.8 3,4.1 3.8,6.7 0.9,2.7 1.3,5.2 1.3,7.5 0,2.4 -0.4,4.9 -1.3,7.6 -0.8,2.7 -2.1,4.9 -3.8,6.8 -1.7,1.8 -3.7,2.7 -6.1,2.7 z m 0,-3.3 c 1.7,0 3.2,-0.8 4.3,-2.5 1.1,-1.6 1.9,-3.6 2.4,-5.8 0.5,-2.2 0.8,-4.3 0.8,-6.1 0,-1.7 -0.3,-3.6 -0.8,-5.6 -0.5,-2 -1.3,-3.8 -2.5,-5.2 -1.1,-1.5 -2.5,-2.3 -4.2,-2.3 -1.7,0 -3.1,0.8 -4.3,2.3 -1.1,1.4 -1.9,3.2 -2.4,5.2 -0.5,2 -0.8,3.9 -0.8,5.6 0,1.8 0.3,3.8 0.7,6 0.5,2.3 1.3,4.2 2.5,5.9 1.1,1.7 2.5,2.5 4.3,2.5 z" id="path57" style="fill:#39ac4c;fill-opacity:0.851" />
		<path d="m 274.3,95.72 c -0.9,-0.16 -1.4,-0.69 -1.6,-1.63 v -0.26 c 0.2,-0.91 0.7,-1.44 1.6,-1.6 h 18.5 c 0.9,0.16 1.4,0.69 1.6,1.6 v 0.26 c -0.2,0.94 -0.7,1.47 -1.6,1.63 h -18.5 z m 26.3,13.18 v -0.4 c 0.2,-0.9 0.6,-1.3 1.5,-1.5 h 5.4 V 84.51 c -0.7,0.68 -1.5,1.24 -2.5,1.66 -1,0.43 -2,0.65 -3,0.65 -0.4,0 -0.8,-0.13 -1.1,-0.38 -0.3,-0.26 -0.5,-0.61 -0.5,-1.06 v -0.45 c 0.1,-0.86 0.6,-1.33 1.4,-1.44 1.5,0 2.7,-0.54 3.8,-1.61 1.1,-1.07 1.9,-2.38 2.5,-3.92 0.2,-0.55 0.7,-0.89 1.3,-1.02 h 0.4 c 0.9,0.11 1.4,0.58 1.5,1.44 V 107 h 5.5 c 0.8,0.2 1.3,0.6 1.4,1.5 v 0.4 c -0.1,0.9 -0.6,1.4 -1.4,1.5 h -14.7 c -0.8,-0.1 -1.3,-0.6 -1.5,-1.5 z" id="path47_1_" style="fill:#39ac4c;fill-opacity:0.851" />
	</g>
</g>
<path d="m 188,245.4 95.6,-58.3 v -2.7 L 188,242.6 v 2.8 l 0,0 z" id="path63" style="fill:none" />
<path d="m 29.76,133.9 v 2.8 H 11.42 c 0,3.9 1.05,7 3.15,9.2 2.11,2.2 4.88,3.3 8.32,3.3 2.86,0 5.54,-0.8 8.21,-2.4 l 1.72,2.9 c -2.77,1.8 -6.4,2.8 -10.8,2.8 -6.01,0 -10.41,-1.7 -13.28,-5.4 -2.29,-3 -3.53,-6.4 -3.53,-10.4 0,-4.9 1.72,-9 5.16,-12.2 3.44,-3.3 7.74,-4.9 12.99,-4.9 3.06,0 5.93,0.8 8.41,2.2 l -1.72,3 c -2.29,-1.2 -4.49,-1.8 -6.59,-1.8 -3.15,0 -5.93,1 -8.12,3 -2.3,2.1 -3.54,4.7 -3.92,7.9 h 18.34 l 0,0 v 0 z" id="path65" style="fill:#131516" />
<path d="m 41.23,142.4 c 0.48,0 0.86,0.2 1.24,0.5 0.29,0.3 0.48,0.7 0.48,1.1 0,0.5 -0.19,0.9 -0.48,1.2 -0.38,0.4 -0.76,0.5 -1.24,0.5 -0.38,0 -0.76,-0.1 -1.15,-0.5 -0.28,-0.3 -0.47,-0.7 -0.47,-1.2 0,-0.5 0.19,-0.8 0.47,-1.1 0.29,-0.3 0.77,-0.5 1.15,-0.5 z m 1.43,7.9 v 12.1 c 0,1 0,1.6 0.19,2 0.1,0.3 0.29,0.5 0.58,0.7 0.28,0.1 0.76,0.2 1.43,0.2 v 0.6 h -7.17 v -0.6 c 0.67,0 1.15,0 1.44,-0.2 0.19,-0.1 0.48,-0.4 0.57,-0.7 0.19,-0.4 0.19,-1 0.19,-2 v -5.8 c 0,-1.6 0,-2.7 -0.1,-3.1 -0.1,-0.4 -0.19,-0.7 -0.39,-0.8 -0.19,-0.1 -0.38,-0.2 -0.66,-0.2 -0.29,0 -0.67,0.1 -1.06,0.2 l -0.28,-0.6 4.49,-1.8 h 0.76 l 0,0 z" id="path67" style="fill:#131516" />
<path d="m 50.5,142.4 c 0.47,0 0.86,0.1 1.14,0.5 0.38,0.3 0.48,0.7 0.48,1.1 0,0.5 -0.1,0.9 -0.48,1.2 -0.28,0.4 -0.67,0.6 -1.14,0.6 -0.48,0 -0.86,-0.2 -1.15,-0.6 -0.38,-0.3 -0.57,-0.7 -0.57,-1.2 0,-0.5 0.19,-0.8 0.57,-1.1 0.29,-0.4 0.67,-0.5 1.15,-0.5 z m 1.33,7.9 v 15.3 c 0,2.5 -0.47,4.4 -1.62,5.7 -1.05,1.3 -2.48,1.9 -4.2,1.9 -0.96,0 -1.72,-0.2 -2.2,-0.5 -0.48,-0.4 -0.67,-0.8 -0.67,-1.2 0,-0.4 0.1,-0.7 0.38,-1 0.29,-0.3 0.58,-0.4 0.96,-0.4 0.28,0 0.57,0.1 0.86,0.2 0.19,0.1 0.48,0.4 1.05,0.9 0.48,0.4 0.95,0.7 1.34,0.7 0.28,0 0.47,-0.1 0.76,-0.3 0.19,-0.2 0.38,-0.6 0.57,-1.1 0.1,-0.5 0.1,-1.4 0.1,-3.1 v -10.7 c 0,-1.7 0,-2.8 -0.1,-3.2 -0.1,-0.4 -0.19,-0.7 -0.38,-0.8 -0.19,-0.1 -0.38,-0.2 -0.67,-0.2 -0.28,0 -0.67,0.1 -1.05,0.2 l -0.29,-0.6 4.5,-1.8 h 0.66 l 0,0 z" id="path69" style="fill:#131516" />
<path d="m 60.34,142.4 v 15.1 l 3.82,-3.5 c 0.76,-0.8 1.24,-1.3 1.34,-1.5 0.1,-0.1 0.19,-0.3 0.19,-0.4 0,-0.2 -0.1,-0.4 -0.29,-0.6 -0.19,-0.2 -0.48,-0.2 -0.95,-0.2 v -0.5 h 6.49 v 0.5 c -0.86,0 -1.62,0.1 -2.2,0.4 -0.57,0.2 -1.24,0.7 -1.91,1.3 l -3.82,3.6 3.82,5 c 1.05,1.3 1.72,2.1 2.11,2.5 0.47,0.5 0.95,0.9 1.33,1.1 0.29,0.1 0.77,0.1 1.44,0.1 v 0.6 h -7.26 v -0.6 c 0.47,0 0.76,0 0.85,-0.2 0.2,-0.1 0.2,-0.3 0.2,-0.5 0,-0.2 -0.2,-0.6 -0.58,-1.2 l -4.58,-5.9 v 4.9 c 0,1 0.1,1.7 0.19,2 0.1,0.3 0.38,0.6 0.57,0.7 0.29,0.1 0.77,0.2 1.63,0.2 v 0.6 h -7.55 v -0.6 c 0.76,0 1.34,-0.1 1.72,-0.3 0.19,-0.1 0.38,-0.3 0.48,-0.5 0.19,-0.4 0.28,-1.1 0.28,-2 v -13.7 c 0,-1.7 -0.1,-2.8 -0.1,-3.2 -0.1,-0.4 -0.29,-0.7 -0.39,-0.9 -0.19,-0.1 -0.47,-0.2 -0.66,-0.2 -0.29,0 -0.58,0.1 -1.06,0.3 l -0.28,-0.6 4.39,-1.8 h 0.77 l 0,0 v 0 z" id="path71" style="fill:#131516" />
<path d="M 80.97,123.2 H 116 v 2.6 H 80.97 v -2.6 z m 0,10.7 H 116 v 2.7 H 80.97 v -2.7 z" id="path73" style="fill:#131516" />
<path d="M 368.8,63.32 464.4,4.9 V 2.08 L 368.8,60.5 v 2.82 z" id="path77" style="fill:none" />
<path d="m 368.7,246 95.6,-58.3 v -2.8 l -95.6,58.3 v 2.8 l 0,0 z" id="path79" style="fill:none" />
<linearGradient x1="5031" y1="8909" x2="6031" y2="8909" id="path1819_1_" gradientUnits="userSpaceOnUse" gradientTransform="matrix(0.0947,0,0,0.0953,-106.9,-633.6)">
	<stop id="stop34" style="stop-color:#2a1f74;stop-opacity:1" offset="0" />
	<stop id="stop36" style="stop-color:#da2724;stop-opacity:1" offset="0.4588" />
	<stop id="stop38" style="stop-color:#39ac4c;stop-opacity:1" offset="1" />
	<stop id="stop40" style="stop-color:#39ac4c;stop-opacity:1" offset="1" />
</linearGradient>
<path d="m 369.5,245.3 94.7,-57 v -2.7 l -94.7,57 v 2.7 z" id="path1819" style="fill:url(#path1819_1_);fill-opacity:0.851" />
<linearGradient x1="5031" y1="8909" x2="6031" y2="8909" id="path3357_1_" gradientUnits="userSpaceOnUse" gradientTransform="matrix(0.0947,0,0,0.0953,-289.4,-633.6)">
	<stop id="stop44" style="stop-color:#2a1f74;stop-opacity:1" offset="0" />
	<stop id="stop46" style="stop-color:#da2724;stop-opacity:1" offset="0.4588" />
	<stop id="stop48" style="stop-color:#39ac4c;stop-opacity:1" offset="1" />
	<stop id="stop50" style="stop-color:#39ac4c;stop-opacity:1" offset="1" />
</linearGradient>
<path d="m 187,245.3 94.7,-57 v -2.7 l -94.7,57 v 2.7 l 0,0 z" id="path3357" style="fill:url(#path3357_1_);fill-opacity:0.851" />
<linearGradient x1="5031" y1="8909" x2="6031" y2="8909" id="path3361_1_" gradientUnits="userSpaceOnUse" gradientTransform="matrix(0.0947,0,0,0.0953,-288.7,-816.3)">
	<stop id="stop54" style="stop-color:#2a1f74;stop-opacity:1" offset="0" />
	<stop id="stop56" style="stop-color:#da2724;stop-opacity:1" offset="0.4588" />
	<stop id="stop58" style="stop-color:#39ac4c;stop-opacity:1" offset="1" />
	<stop id="stop60" style="stop-color:#39ac4c;stop-opacity:1" offset="1" />
</linearGradient>
<path d="M 187.8,62.57 282.5,5.502 V 2.835 L 187.8,59.8 v 2.77 l 0,0 z" id="path3361" style="fill:url(#path3361_1_);fill-opacity:0.851" />
<g id="redlayer">
	<g id="g82">
		<g id="g84">
			<g id="g86">
				<path d="m 416.7,216.7 v 0.7 c 9.5,-10.5 16.7,-23.4 21.5,-39 4.9,-15.8 7.3,-33.6 7.3,-53.7 0,-19.9 -2.4,-37.76 -7.4,-53.44 -4.7,-15.68 -11.9,-28.72 -21.4,-39.14 v 0.68 c -0.5,-0.1 -1.1,-0.1 -1.7,-0.1 H 237.3 c -0.7,0 -1.3,0 -2,0.1 v -0.68 c -9.4,10.42 -16.5,23.46 -21.4,39.14 -4.9,15.68 -7.4,33.54 -7.4,53.44 0,20.1 2.4,38 7.3,53.7 4.9,15.7 12,28.5 21.5,39 v -0.7 c 0.7,0 1.3,0.1 2,0.1 H 415 c 0.6,0 1.2,-0.1 1.7,-0.1 z M 235.3,32.12 H 416.7 M 235.3,217.4 h 181.4" id="path88" style="fill:#eba1b1;fill-opacity:0.3216" />
				<path d="m 416.7,216.7 v 0.7 c 9.5,-10.5 16.7,-23.4 21.5,-39 4.9,-15.8 7.3,-33.6 7.3,-53.7 0,-19.9 -2.4,-37.76 -7.4,-53.44 -4.7,-15.68 -11.9,-28.72 -21.4,-39.14 v 0.68 c -0.5,-0.1 -1.1,-0.1 -1.7,-0.1 H 237.3 c -0.7,0 -1.3,0 -2,0.1 v -0.68 c -9.4,10.42 -16.5,23.46 -21.4,39.14 -4.9,15.68 -7.4,33.54 -7.4,53.44 0,20.1 2.4,38 7.3,53.7 4.9,15.7 12,28.5 21.5,39 v -0.7 c 0.7,0 1.3,0.1 2,0.1 H 415 c 0.6,0 1.2,-0.1 1.7,-0.1 z M 235.3,32.12 H 416.7 M 235.3,217.4 h 181.4" id="path90" style="fill:none" />
			</g>
			<path d="m 416.7,216.7 v 0.7 c 9.5,-10.5 16.7,-23.4 21.5,-39 4.9,-15.8 7.3,-33.6 7.3,-53.7 0,-19.9 -2.4,-37.76 -7.4,-53.44 -4.7,-15.68 -11.9,-28.72 -21.4,-39.14 v 0.68 c -0.5,-0.1 -1.1,-0.1 -1.7,-0.1 H 237.3 c -0.7,0 -1.3,0 -2,0.1 v -0.68 c -9.4,10.42 -16.5,23.46 -21.4,39.14 -4.9,15.68 -7.4,33.54 -7.4,53.44 0,20.1 2.4,38 7.3,53.7 4.9,15.7 12,28.5 21.5,39 v -0.7 c 0.7,0 1.3,0.1 2,0.1 H 415 c 0.6,0 1.2,-0.1 1.7,-0.1 z M 235.3,32.12 H 416.7 M 235.3,217.4 h 181.4" id="path92" style="fill:none" />
		</g>
		<path d="m 416.7,216.7 v 0.7 c 9.5,-10.5 16.7,-23.4 21.5,-39 4.9,-15.8 7.3,-33.6 7.3,-53.7 0,-19.9 -2.4,-37.76 -7.4,-53.44 -4.7,-15.68 -11.9,-28.72 -21.4,-39.14 v 0.68 c -0.5,-0.1 -1.1,-0.1 -1.7,-0.1 H 237.3 c -0.7,0 -1.3,0 -2,0.1 v -0.68 c -9.4,10.42 -16.5,23.46 -21.4,39.14 -4.9,15.68 -7.4,33.54 -7.4,53.44 0,20.1 2.4,38 7.3,53.7 4.9,15.7 12,28.5 21.5,39 v -0.7 c 0.7,0 1.3,0.1 2,0.1 H 415 c 0.6,0 1.2,-0.1 1.7,-0.1 z M 235.3,32.12 H 416.7 M 235.3,217.4 h 181.4" id="path94" style="fill:none" />
	</g>
	<g id="rotezahlen">
		<path d="m 396.1,141.3 c -2.5,0 -4.5,-0.9 -6.2,-2.7 -1.7,-1.8 -3,-4.1 -3.8,-6.8 -0.8,-2.6 -1.3,-5.1 -1.3,-7.5 0,-2.4 0.5,-4.9 1.3,-7.6 0.8,-2.6 2.1,-4.9 3.8,-6.7 1.7,-1.8 3.7,-2.8 6.2,-2.8 2.4,0 4.5,1 6.1,2.8 1.7,1.8 3,4.1 3.8,6.7 0.9,2.7 1.3,5.2 1.3,7.6 0,2.4 -0.4,4.9 -1.3,7.5 -0.8,2.7 -2.1,5 -3.8,6.8 -1.6,1.8 -3.7,2.7 -6.1,2.7 z m 0,-3.3 c 1.7,0 3.2,-0.8 4.3,-2.5 1.1,-1.6 1.9,-3.5 2.4,-5.8 0.5,-2.2 0.8,-4.2 0.8,-6.1 0,-1.7 -0.3,-3.5 -0.8,-5.6 -0.5,-2 -1.3,-3.7 -2.5,-5.2 -1.1,-1.5 -2.5,-2.2 -4.2,-2.2 -1.7,0 -3.1,0.7 -4.3,2.2 -1.1,1.5 -1.9,3.2 -2.4,5.2 -0.5,2.1 -0.8,3.9 -0.8,5.6 0,1.8 0.2,3.8 0.7,6.1 0.5,2.2 1.3,4.2 2.4,5.8 1.2,1.7 2.6,2.5 4.4,2.5 z" id="path99" style="fill:#de3855" />
		<path d="m 261.7,87.5 c -2.5,0 -4.5,-0.92 -6.2,-2.76 -1.7,-1.83 -3,-4.08 -3.8,-6.74 -0.9,-2.67 -1.3,-5.19 -1.3,-7.59 0,-2.36 0.5,-4.87 1.3,-7.52 0.8,-2.65 2.1,-4.9 3.8,-6.73 1.7,-1.83 3.7,-2.76 6.2,-2.76 2.4,0 4.5,0.93 6.1,2.76 1.7,1.83 3,4.08 3.8,6.73 0.9,2.65 1.3,5.16 1.3,7.52 0,2.4 -0.4,4.92 -1.3,7.59 -0.8,2.66 -2.1,4.91 -3.8,6.74 -1.7,1.84 -3.7,2.76 -6.1,2.76 z m 0,-3.33 c 1.7,0 3.2,-0.82 4.3,-2.48 1.1,-1.64 1.9,-3.59 2.4,-5.81 0.5,-2.23 0.8,-4.26 0.8,-6.1 0,-1.71 -0.3,-3.57 -0.8,-5.6 -0.5,-2.01 -1.3,-3.75 -2.5,-5.23 -1.1,-1.48 -2.5,-2.22 -4.2,-2.22 -1.7,0 -3.1,0.74 -4.3,2.22 -1.1,1.48 -1.9,3.22 -2.4,5.23 -0.5,2.03 -0.8,3.89 -0.8,5.6 0,1.8 0.2,3.81 0.7,6.04 0.5,2.23 1.3,4.18 2.4,5.84 1.2,1.68 2.6,2.51 4.4,2.51 z" id="path101" style="fill:#de3855" />
		<path d="m 328.9,87.5 c -2.5,0 -4.5,-0.92 -6.2,-2.76 -1.7,-1.83 -3,-4.08 -3.8,-6.74 -0.9,-2.67 -1.3,-5.19 -1.3,-7.59 0,-2.36 0.4,-4.87 1.3,-7.52 0.8,-2.65 2.1,-4.9 3.8,-6.73 1.7,-1.83 3.7,-2.76 6.2,-2.76 2.4,0 4.4,0.93 6.1,2.76 1.7,1.83 3,4.08 3.8,6.73 0.9,2.65 1.3,5.16 1.3,7.52 0,2.4 -0.4,4.92 -1.3,7.59 -0.8,2.66 -2.1,4.91 -3.8,6.74 -1.6,1.84 -3.7,2.76 -6.1,2.76 z m 0,-3.33 c 1.7,0 3.2,-0.82 4.3,-2.48 1.1,-1.64 1.9,-3.59 2.4,-5.81 0.5,-2.23 0.8,-4.26 0.8,-6.1 0,-1.71 -0.3,-3.57 -0.8,-5.6 -0.5,-2.01 -1.3,-3.75 -2.5,-5.23 -1.1,-1.48 -2.5,-2.22 -4.2,-2.22 -1.7,0 -3.1,0.74 -4.3,2.22 -1.1,1.48 -1.9,3.22 -2.4,5.23 -0.5,2.03 -0.8,3.89 -0.8,5.6 0,1.8 0.2,3.81 0.7,6.04 0.5,2.23 1.3,4.18 2.4,5.84 1.2,1.68 2.6,2.51 4.4,2.51 z" id="path103" style="fill:#de3855" />
		<path d="m 261.7,141.3 c -2.5,0 -4.5,-0.9 -6.2,-2.7 -1.7,-1.8 -3,-4.1 -3.8,-6.8 -0.9,-2.6 -1.3,-5.1 -1.3,-7.5 0,-2.4 0.5,-4.9 1.3,-7.6 0.8,-2.6 2.1,-4.9 3.8,-6.7 1.7,-1.8 3.7,-2.8 6.2,-2.8 2.4,0 4.5,1 6.1,2.8 1.7,1.8 3,4.1 3.8,6.7 0.9,2.7 1.3,5.2 1.3,7.6 0,2.4 -0.4,4.9 -1.3,7.5 -0.8,2.7 -2.1,5 -3.8,6.8 -1.7,1.8 -3.7,2.7 -6.1,2.7 z m 0,-3.3 c 1.7,0 3.2,-0.8 4.3,-2.5 1.1,-1.6 1.9,-3.5 2.4,-5.8 0.5,-2.2 0.8,-4.2 0.8,-6.1 0,-1.7 -0.3,-3.5 -0.8,-5.6 -0.5,-2 -1.3,-3.7 -2.5,-5.2 -1.1,-1.5 -2.5,-2.2 -4.2,-2.2 -1.7,0 -3.1,0.7 -4.3,2.2 -1.1,1.5 -1.9,3.2 -2.4,5.2 -0.5,2.1 -0.8,3.9 -0.8,5.6 0,1.8 0.2,3.8 0.7,6.1 0.5,2.2 1.3,4.2 2.4,5.8 1.2,1.7 2.6,2.5 4.4,2.5 z" id="path105" style="fill:#de3855" />
		<path d="m 253.8,194.3 v -0.5 c 0.1,-0.8 0.5,-1.3 1.4,-1.4 h 5.4 v -22.6 c -0.7,0.7 -1.5,1.3 -2.5,1.7 -1,0.4 -2,0.6 -3,0.6 -0.4,0 -0.8,-0.1 -1.1,-0.3 -0.3,-0.3 -0.5,-0.6 -0.5,-1.1 v -0.4 c 0.1,-0.9 0.6,-1.4 1.4,-1.5 1.5,0 2.7,-0.5 3.8,-1.6 1.1,-1.1 1.9,-2.4 2.5,-3.9 0.3,-0.6 0.7,-0.9 1.3,-1 h 0.4 c 0.9,0.1 1.4,0.6 1.5,1.4 v 28.7 h 5.5 c 0.8,0.1 1.3,0.6 1.4,1.4 v 0.5 c -0.1,0.8 -0.6,1.3 -1.4,1.4 h -14.7 c -0.8,-0.1 -1.3,-0.6 -1.4,-1.4 z" id="path107" style="fill:#de3855" />
		<path d="m 361.8,72.13 c -0.9,-0.16 -1.4,-0.69 -1.6,-1.62 v -0.26 c 0.2,-0.92 0.7,-1.44 1.6,-1.6 h 18.5 c 0.9,0.16 1.4,0.68 1.6,1.6 v 0.26 c -0.2,0.93 -0.7,1.46 -1.6,1.62 h -18.5 z m 26.3,13.22 V 84.9 c 0.1,-0.86 0.6,-1.33 1.5,-1.44 H 395 V 60.92 c -0.7,0.68 -1.5,1.23 -2.5,1.66 -1,0.43 -2,0.64 -3,0.64 -0.4,0 -0.8,-0.12 -1.1,-0.37 -0.3,-0.26 -0.5,-0.61 -0.5,-1.07 v -0.44 c 0.1,-0.85 0.6,-1.34 1.4,-1.43 1.5,0 2.7,-0.54 3.8,-1.61 1.1,-1.08 1.9,-2.38 2.5,-3.92 0.3,-0.56 0.7,-0.9 1.3,-1.02 h 0.4 c 0.9,0.11 1.4,0.58 1.5,1.44 v 28.67 h 5.5 c 0.8,0.11 1.3,0.58 1.4,1.44 v 0.44 c -0.1,0.86 -0.6,1.33 -1.4,1.44 h -14.7 c -0.8,-0.11 -1.3,-0.58 -1.5,-1.44 z" id="path107_1_" style="fill:#de3855" />
		<path d="m 328.9,141.3 c -2.5,0 -4.5,-0.9 -6.2,-2.7 -1.7,-1.8 -3,-4.1 -3.8,-6.8 -0.9,-2.6 -1.3,-5.1 -1.3,-7.5 0,-2.4 0.4,-4.9 1.3,-7.6 0.8,-2.6 2.1,-4.9 3.8,-6.7 1.7,-1.8 3.7,-2.8 6.2,-2.8 2.4,0 4.4,1 6.1,2.8 1.7,1.8 3,4.1 3.8,6.7 0.9,2.7 1.3,5.2 1.3,7.6 0,2.4 -0.4,4.9 -1.3,7.5 -0.8,2.7 -2.1,5 -3.8,6.8 -1.6,1.8 -3.7,2.7 -6.1,2.7 z m 0,-3.3 c 1.7,0 3.2,-0.8 4.3,-2.5 1.1,-1.6 1.9,-3.5 2.4,-5.8 0.5,-2.2 0.8,-4.2 0.8,-6.1 0,-1.7 -0.3,-3.5 -0.8,-5.6 -0.5,-2 -1.3,-3.7 -2.5,-5.2 -1.1,-1.5 -2.5,-2.2 -4.2,-2.2 -1.7,0 -3.1,0.7 -4.3,2.2 -1.1,1.5 -1.9,3.2 -2.4,5.2 -0.5,2.1 -0.8,3.9 -0.8,5.6 0,1.8 0.2,3.8 0.7,6.1 0.5,2.2 1.3,4.2 2.4,5.8 1.2,1.7 2.6,2.5 4.4,2.5 z" id="path109" style="fill:#de3855" />
		<path d="m 396.1,197.2 c -2.5,0 -4.5,-0.9 -6.2,-2.7 -1.7,-1.8 -3,-4.1 -3.8,-6.8 -0.8,-2.6 -1.3,-5.2 -1.3,-7.5 0,-2.4 0.5,-4.9 1.3,-7.6 0.8,-2.6 2.1,-4.9 3.8,-6.7 1.7,-1.8 3.7,-2.8 6.2,-2.8 2.4,0 4.5,1 6.1,2.8 1.7,1.8 3,4.1 3.8,6.7 0.9,2.7 1.3,5.2 1.3,7.6 0,2.3 -0.4,4.9 -1.3,7.5 -0.8,2.7 -2.1,5 -3.8,6.8 -1.6,1.8 -3.7,2.7 -6.1,2.7 z m 0,-3.3 c 1.7,0 3.2,-0.8 4.3,-2.5 1.1,-1.6 1.9,-3.6 2.4,-5.8 0.5,-2.2 0.8,-4.2 0.8,-6.1 0,-1.7 -0.3,-3.6 -0.8,-5.6 -0.5,-2 -1.3,-3.7 -2.5,-5.2 -1.1,-1.5 -2.5,-2.2 -4.2,-2.2 -1.7,0 -3.1,0.7 -4.3,2.2 -1.1,1.5 -1.9,3.2 -2.4,5.2 -0.5,2 -0.8,3.9 -0.8,5.6 0,1.8 0.2,3.8 0.7,6.1 0.5,2.2 1.3,4.1 2.4,5.8 1.2,1.7 2.6,2.5 4.4,2.5 z" id="path111" style="fill:#de3855" />
		<path d="m 328.8,197.7 c -2.5,0 -4.5,-0.9 -6.2,-2.7 -1.7,-1.8 -3,-4.1 -3.8,-6.8 -0.8,-2.6 -1.2,-5.1 -1.2,-7.5 0,-2.4 0.4,-4.9 1.2,-7.6 0.8,-2.6 2.1,-4.9 3.8,-6.7 1.7,-1.8 3.7,-2.7 6.2,-2.7 2.4,0 4.4,0.9 6.1,2.7 1.7,1.8 3,4.1 3.8,6.7 0.9,2.7 1.3,5.2 1.3,7.6 0,2.3 -0.4,4.9 -1.3,7.5 -0.8,2.7 -2.1,5 -3.8,6.8 -1.7,1.8 -3.7,2.7 -6.1,2.7 z m 0,-3.3 c 1.7,0 3.2,-0.8 4.3,-2.5 1.1,-1.6 1.9,-3.5 2.4,-5.8 0.5,-2.2 0.8,-4.2 0.8,-6.1 0,-1.7 -0.3,-3.5 -0.8,-5.6 -0.5,-2 -1.3,-3.7 -2.5,-5.2 -1.1,-1.5 -2.5,-2.2 -4.2,-2.2 -1.7,0 -3.1,0.7 -4.3,2.2 -1.1,1.5 -1.9,3.2 -2.4,5.2 -0.5,2.1 -0.8,3.9 -0.8,5.6 0,1.8 0.3,3.8 0.7,6.1 0.5,2.2 1.3,4.2 2.5,5.8 1.1,1.7 2.5,2.5 4.3,2.5 z" id="path113" style="fill:#de3855" />
	</g>
	<path d="m 235.3,34.55 c -7.2,9.06 -12.7,21.03 -16.2,35.83 -3.6,14.71 -5.4,32.82 -5.4,54.32 0,21.2 1.8,39.2 5.4,54 3.5,14.7 8.9,26.6 16.2,35.9 v 2.8 c -9.4,-10.5 -16.6,-23.4 -21.5,-39 -4.9,-15.7 -7.2,-33.6 -7.2,-53.7 0,-19.9 2.4,-37.76 7.3,-53.44 4.9,-15.68 12,-28.72 21.4,-39.14 v 2.43 l 0,0 z" id="path115" style="fill:#de3855;fill-opacity:0.851" />
	<path d="m 416.7,34.55 c 7.3,9.06 12.7,21.03 16.4,35.83 3.5,14.71 5.2,32.82 5.2,54.32 0,21.2 -1.7,39.2 -5.2,54 -3.6,14.7 -9,26.6 -16.4,35.9 v 2.8 c 9.5,-10.5 16.7,-23.4 21.5,-39 4.9,-15.7 7.3,-33.6 7.3,-53.7 0,-19.9 -2.4,-37.76 -7.4,-53.44 -4.7,-15.68 -11.9,-28.72 -21.4,-39.14 v 2.43 l 0,0 z" id="path117" style="fill:#de3855;fill-opacity:0.851" />
</g>
<linearGradient x1="5031" y1="8909" x2="6031" y2="8909" id="path3369_1_" gradientUnits="userSpaceOnUse" gradientTransform="matrix(0.0947,0,0,0.0953,-106.9,-816.3)">
	<stop id="stop84" style="stop-color:#2a1f74;stop-opacity:1" offset="0" />
	<stop id="stop86" style="stop-color:#da2724;stop-opacity:1" offset="0.4588" />
	<stop id="stop88" style="stop-color:#39ac4c;stop-opacity:1" offset="1" />
	<stop id="stop90" style="stop-color:#39ac4c;stop-opacity:1" offset="1" />
</linearGradient>
<path d="M 369.5,62.57 464.2,5.502 V 2.835 L 369.5,59.8 v 2.77 z" id="path3369" style="fill:url(#path3369_1_);fill-opacity:0.851" />
<g transform="translate(66.31,-1.061)" id="bluelayer">
	<path d="m 122,63.35 c -7.3,9.05 -12.7,21.03 -16.3,35.83 -3.5,14.72 -5.3,32.82 -5.3,54.32 0,21.1 1.8,39.2 5.3,53.9 3.6,14.7 8.9,26.7 16.3,36 v 2.8 c -9.5,-10.5 -16.6,-23.5 -21.5,-39.1 -4.87,-15.6 -7.26,-33.5 -7.26,-53.6 0,-19.9 2.48,-37.8 7.36,-53.4 4.9,-15.72 12,-28.77 21.4,-39.19 v 2.43 l 0,0 v 0 z" id="path124" style="fill:#242a7a;fill-opacity:0.851" />
	<path d="m 303.8,63.75 c 7.2,9.05 12.7,21.03 16.3,35.83 3.5,14.72 5.3,32.82 5.3,54.32 0,21.1 -1.8,39.2 -5.3,53.9 -3.5,14.7 -9,26.7 -16.3,36 v 2.8 c 9.4,-10.5 16.6,-23.5 21.5,-39.1 4.8,-15.6 7.2,-33.5 7.2,-53.6 0,-19.9 -2.4,-37.8 -7.3,-53.4 -4.8,-15.72 -12,-28.77 -21.4,-39.19 v 2.43 l 0,0 0,0 0,0 z" id="path126" style="fill:#242a7a;fill-opacity:0.851" />
	<g id="blauezahlen">
		<path d="m 281.7,117 c -2.4,0 -4.5,-0.9 -6.2,-2.7 -1.6,-1.9 -2.9,-4.1 -3.8,-6.8 -0.8,-2.6 -1.2,-5.2 -1.2,-7.56 0,-2.36 0.4,-4.87 1.2,-7.52 0.9,-2.65 2.2,-4.9 3.8,-6.73 1.7,-1.84 3.8,-2.76 6.2,-2.76 2.5,0 4.5,0.92 6.2,2.76 1.7,1.83 3,4.08 3.8,6.73 0.8,2.65 1.3,5.16 1.3,7.52 0,2.36 -0.5,4.96 -1.3,7.56 -0.8,2.7 -2.1,4.9 -3.8,6.8 -1.7,1.8 -3.7,2.7 -6.2,2.7 z m 0.1,-3.3 c 1.7,0 3.1,-0.8 4.3,-2.5 1.1,-1.6 1.9,-3.6 2.4,-5.8 0.5,-2.2 0.8,-4.2 0.8,-6.09 0,-1.71 -0.3,-3.58 -0.8,-5.6 -0.5,-2.01 -1.4,-3.75 -2.5,-5.23 -1.1,-1.48 -2.6,-2.22 -4.2,-2.22 -1.8,0 -3.2,0.74 -4.3,2.22 -1.1,1.48 -1.9,3.22 -2.5,5.23 -0.5,2.02 -0.7,3.89 -0.7,5.6 0,1.79 0.2,3.79 0.7,6.09 0.5,2.2 1.3,4.1 2.4,5.8 1.1,1.7 2.6,2.5 4.4,2.5 z" id="path129" style="fill:#242a7a;fill-opacity:0.851" />
		<path d="m 274.9,168.8 v -0.5 c 0.1,-0.8 0.6,-1.3 1.4,-1.4 h 5.5 v -22.5 c -0.8,0.6 -1.6,1.2 -2.6,1.6 -1,0.4 -2,0.7 -2.9,0.7 -0.5,0 -0.9,-0.2 -1.2,-0.4 -0.3,-0.3 -0.4,-0.6 -0.5,-1.1 v -0.4 c 0.1,-0.9 0.6,-1.4 1.4,-1.5 1.5,0 2.7,-0.5 3.8,-1.6 1.1,-1.1 1.9,-2.4 2.5,-3.9 0.3,-0.6 0.7,-0.9 1.4,-1 h 0.3 c 0.9,0.1 1.4,0.6 1.5,1.4 v 28.7 h 5.5 c 0.9,0.1 1.3,0.6 1.4,1.4 v 0.5 c -0.1,0.8 -0.5,1.3 -1.4,1.4 h -14.7 c -0.8,-0.1 -1.2,-0.6 -1.4,-1.4 z" id="path131" style="fill:#242a7a;fill-opacity:0.851" />
		<path d="m 147.3,117 c -2.4,0 -4.5,-0.9 -6.1,-2.7 -1.7,-1.9 -3,-4.1 -3.8,-6.8 -0.9,-2.6 -1.3,-5.2 -1.3,-7.56 0,-2.36 0.4,-4.87 1.3,-7.52 0.8,-2.65 2.1,-4.9 3.8,-6.73 1.6,-1.84 3.7,-2.76 6.1,-2.76 2.5,0 4.5,0.92 6.2,2.76 1.7,1.83 3,4.08 3.8,6.73 0.8,2.65 1.3,5.16 1.3,7.52 0,2.36 -0.5,4.96 -1.3,7.56 -0.8,2.7 -2.1,4.9 -3.8,6.8 -1.7,1.8 -3.7,2.7 -6.2,2.7 z m 0.1,-3.3 c 1.7,0 3.1,-0.8 4.3,-2.5 1.1,-1.6 1.9,-3.6 2.4,-5.8 0.5,-2.2 0.8,-4.2 0.8,-6.09 0,-1.71 -0.3,-3.58 -0.8,-5.6 -0.5,-2.01 -1.4,-3.75 -2.5,-5.23 -1.1,-1.48 -2.6,-2.22 -4.3,-2.22 -1.7,0 -3.1,0.74 -4.2,2.22 -1.1,1.48 -2,3.22 -2.5,5.23 -0.5,2.02 -0.7,3.89 -0.7,5.6 0,1.79 0.2,3.79 0.7,6.09 0.5,2.2 1.3,4.1 2.4,5.8 1.1,1.7 2.6,2.5 4.4,2.5 z" id="path133" style="fill:#242a7a;fill-opacity:0.851" />
		<path d="m 214.5,117 c -2.4,0 -4.5,-0.9 -6.2,-2.7 -1.6,-1.9 -2.9,-4.1 -3.7,-6.8 -0.9,-2.6 -1.3,-5.2 -1.3,-7.56 0,-2.36 0.4,-4.87 1.3,-7.52 0.8,-2.65 2.1,-4.9 3.7,-6.73 1.7,-1.84 3.8,-2.76 6.2,-2.76 2.5,0 4.5,0.92 6.2,2.76 1.7,1.83 3,4.08 3.8,6.73 0.8,2.65 1.3,5.16 1.3,7.52 0,2.36 -0.5,4.96 -1.3,7.56 -0.8,2.7 -2.1,4.9 -3.8,6.8 -1.7,1.8 -3.7,2.7 -6.2,2.7 z m 0.1,-3.3 c 1.7,0 3.1,-0.8 4.3,-2.5 1.1,-1.6 1.9,-3.6 2.4,-5.8 0.5,-2.2 0.8,-4.2 0.8,-6.09 0,-1.71 -0.3,-3.58 -0.8,-5.6 -0.5,-2.01 -1.4,-3.75 -2.5,-5.23 -1.1,-1.48 -2.6,-2.22 -4.2,-2.22 -1.8,0 -3.2,0.74 -4.3,2.22 -1.1,1.48 -1.9,3.22 -2.5,5.23 -0.5,2.02 -0.7,3.89 -0.7,5.6 0,1.79 0.2,3.79 0.7,6.09 0.5,2.2 1.3,4.1 2.4,5.8 1.1,1.7 2.6,2.5 4.4,2.5 z" id="path135" style="fill:#242a7a;fill-opacity:0.851" />
		<path d="m 147.3,170.9 c -2.4,0 -4.5,-0.9 -6.1,-2.8 -1.7,-1.8 -3,-4.1 -3.8,-6.7 -0.9,-2.7 -1.3,-5.2 -1.3,-7.6 0,-2.4 0.4,-4.9 1.3,-7.5 0.8,-2.7 2.1,-4.9 3.8,-6.8 1.6,-1.8 3.7,-2.7 6.1,-2.7 2.5,0 4.5,0.9 6.2,2.7 1.7,1.9 3,4.1 3.8,6.8 0.8,2.6 1.3,5.1 1.3,7.5 0,2.4 -0.5,4.9 -1.3,7.6 -0.8,2.6 -2.1,4.9 -3.8,6.7 -1.7,1.9 -3.7,2.8 -6.2,2.8 z m 0.1,-3.4 c 1.7,0 3.1,-0.8 4.3,-2.4 1.1,-1.7 1.9,-3.6 2.4,-5.8 0.5,-2.3 0.8,-4.3 0.8,-6.1 0,-1.8 -0.3,-3.6 -0.8,-5.6 -0.5,-2.1 -1.4,-3.8 -2.5,-5.3 -1.1,-1.4 -2.6,-2.2 -4.3,-2.2 -1.7,0 -3.1,0.7 -4.2,2.2 -1.1,1.5 -2,3.3 -2.5,5.3 -0.5,2 -0.7,3.8 -0.7,5.6 0,1.8 0.2,3.8 0.7,6 0.5,2.2 1.3,4.2 2.4,5.8 1.1,1.7 2.6,2.5 4.4,2.5 z" id="path137" style="fill:#242a7a;fill-opacity:0.851" />
		<path d="m 147.3,226.6 c -2.4,0 -4.5,-0.9 -6.1,-2.7 -1.7,-1.9 -3,-4.1 -3.8,-6.8 -0.9,-2.6 -1.3,-5.2 -1.3,-7.6 0,-2.3 0.4,-4.8 1.3,-7.5 0.8,-2.6 2.1,-4.9 3.8,-6.7 1.6,-1.8 3.7,-2.8 6.1,-2.8 2.5,0 4.5,1 6.2,2.8 1.7,1.8 3,4.1 3.8,6.7 0.8,2.7 1.3,5.2 1.3,7.5 0,2.4 -0.5,5 -1.3,7.6 -0.8,2.7 -2.1,4.9 -3.8,6.8 -1.7,1.8 -3.7,2.7 -6.2,2.7 z m 0.1,-3.3 c 1.7,0 3.1,-0.8 4.3,-2.5 1.1,-1.6 1.9,-3.6 2.4,-5.8 0.5,-2.2 0.8,-4.3 0.8,-6.1 0,-1.7 -0.3,-3.6 -0.8,-5.6 -0.5,-2 -1.4,-3.8 -2.5,-5.2 -1.1,-1.5 -2.6,-2.3 -4.3,-2.3 -1.7,0 -3.1,0.8 -4.2,2.3 -1.1,1.4 -2,3.2 -2.5,5.2 -0.5,2 -0.7,3.9 -0.7,5.6 0,1.8 0.2,3.8 0.7,6 0.5,2.3 1.3,4.2 2.4,5.9 1.1,1.7 2.6,2.5 4.4,2.5 z" id="path139" style="fill:#242a7a;fill-opacity:0.851" />
		<path d="m 214.5,170.9 c -2.4,0 -4.5,-0.9 -6.2,-2.8 -1.6,-1.8 -2.9,-4.1 -3.7,-6.7 -0.9,-2.7 -1.3,-5.2 -1.3,-7.6 0,-2.4 0.4,-4.9 1.3,-7.5 0.8,-2.7 2.1,-4.9 3.7,-6.8 1.7,-1.8 3.8,-2.7 6.2,-2.7 2.5,0 4.5,0.9 6.2,2.7 1.7,1.9 3,4.1 3.8,6.8 0.8,2.6 1.3,5.1 1.3,7.5 0,2.4 -0.5,4.9 -1.3,7.6 -0.8,2.6 -2.1,4.9 -3.8,6.7 -1.7,1.9 -3.7,2.8 -6.2,2.8 z m 0.1,-3.4 c 1.7,0 3.1,-0.8 4.3,-2.4 1.1,-1.7 1.9,-3.6 2.4,-5.8 0.5,-2.3 0.8,-4.3 0.8,-6.1 0,-1.8 -0.3,-3.6 -0.8,-5.6 -0.5,-2.1 -1.4,-3.8 -2.5,-5.3 -1.1,-1.4 -2.6,-2.2 -4.2,-2.2 -1.8,0 -3.2,0.7 -4.3,2.2 -1.1,1.5 -1.9,3.3 -2.5,5.3 -0.5,2 -0.7,3.8 -0.7,5.6 0,1.8 0.2,3.8 0.7,6 0.5,2.2 1.3,4.2 2.4,5.8 1.1,1.7 2.6,2.5 4.4,2.5 z" id="path141" style="fill:#242a7a;fill-opacity:0.851" />
		<path d="m 282.5,226.8 c -2.5,0 -4.5,-1 -6.2,-2.8 -1.7,-1.8 -3,-4.1 -3.8,-6.7 -0.8,-2.7 -1.3,-5.2 -1.3,-7.6 0,-2.4 0.5,-4.9 1.3,-7.5 0.8,-2.7 2.1,-4.9 3.8,-6.8 1.7,-1.8 3.7,-2.7 6.2,-2.7 2.4,0 4.5,0.9 6.1,2.7 1.7,1.9 3,4.1 3.8,6.8 0.9,2.6 1.3,5.1 1.3,7.5 0,2.4 -0.4,4.9 -1.3,7.6 -0.8,2.6 -2.1,4.9 -3.8,6.7 -1.6,1.8 -3.7,2.8 -6.1,2.8 z m 0,-3.4 c 1.7,0 3.2,-0.8 4.3,-2.4 1.1,-1.7 1.9,-3.6 2.4,-5.9 0.5,-2.2 0.8,-4.2 0.8,-6 0,-1.8 -0.3,-3.6 -0.8,-5.6 -0.5,-2.1 -1.3,-3.8 -2.5,-5.3 -1.1,-1.5 -2.5,-2.2 -4.2,-2.2 -1.7,0 -3.2,0.7 -4.3,2.2 -1.1,1.5 -1.9,3.2 -2.4,5.3 -0.6,2 -0.8,3.8 -0.8,5.6 0,1.8 0.2,3.8 0.7,6 0.5,2.2 1.3,4.2 2.4,5.8 1.2,1.7 2.6,2.5 4.4,2.5 z" id="path143" style="fill:#242a7a;fill-opacity:0.851" />
		<path d="m 180.1,212 c -0.9,-0.2 -1.4,-0.7 -1.6,-1.6 v -0.3 c 0.2,-0.9 0.7,-1.4 1.6,-1.6 h 18.5 c 0.9,0.2 1.4,0.7 1.6,1.6 v 0.3 c -0.2,0.9 -0.7,1.4 -1.6,1.6 h -18.5 z m 26.4,13.2 v -0.5 c 0.1,-0.8 0.5,-1.3 1.4,-1.4 h 5.5 v -22.5 c -0.8,0.6 -1.6,1.2 -2.6,1.6 -1,0.5 -2,0.7 -3,0.7 -0.4,0 -0.8,-0.2 -1.1,-0.4 -0.3,-0.3 -0.4,-0.6 -0.5,-1.1 v -0.4 c 0.1,-0.9 0.6,-1.3 1.4,-1.5 1.5,0 2.7,-0.5 3.8,-1.6 1.1,-1 1.9,-2.3 2.5,-3.9 0.3,-0.5 0.7,-0.9 1.4,-1 h 0.3 c 0.9,0.1 1.4,0.6 1.5,1.4 v 28.7 h 5.5 c 0.8,0.1 1.3,0.6 1.4,1.4 v 0.5 c -0.1,0.9 -0.6,1.3 -1.4,1.4 h -14.7 c -0.8,-0.1 -1.3,-0.5 -1.4,-1.4 z" id="path131_1_" style="fill:#242a7a;fill-opacity:0.851" />
	</g>
	<path d="m 303.4,245.5 v 0.7 c 9.4,-10.5 16.6,-23.5 21.5,-39.1 4.8,-15.7 7.2,-33.5 7.2,-53.6 0,-19.9 -2.4,-37.8 -7.3,-53.4 -4.8,-15.72 -12,-28.77 -21.4,-39.19 v 0.68 c -0.6,-0.1 -1.2,-0.1 -1.8,-0.1 H 123.9 c -0.6,0 -1.3,0 -2,0.1 v -0.68 c -9.3,10.42 -16.5,23.47 -21.4,39.19 -4.85,15.6 -7.33,33.5 -7.33,53.4 0,20.1 2.38,38 7.23,53.6 4.9,15.6 12.1,28.6 21.5,39.1 v -0.7 c 0.7,0 1.4,0.1 2,0.1 h 177.7 c 0.6,0 1.2,-0.1 1.8,-0.1 z M 121.9,60.91 H 303.4 M 121.9,246.2 h 181.5" id="path147" style="fill:#242a7a;fill-opacity:0.3216" />
</g>
</svg>