<?xml version="1.0" encoding="utf-8" standalone="no"?>
<!DOCTYPE svg PUBLIC "-//W3C//DTD SVG 1.1//EN"
  "http://www.w3.org/Graphics/SVG/1.1/DTD/svg11.dtd">
<!-- Created with matplotlib (http://matplotlib.org/) -->
<svg height="216pt" version="1.1" viewBox="0 0 288 216" width="288pt" xmlns="http://www.w3.org/2000/svg" xmlns:xlink="http://www.w3.org/1999/xlink">
 <defs>
  <style type="text/css">
*{stroke-linecap:butt;stroke-linejoin:round;}
  </style>
 </defs>
 <g id="figure_1">
  <g id="patch_1">
   <path d="M 0 216 
L 288 216 
L 288 0 
L 0 0 
z
" style="fill:none;"/>
  </g>
  <g id="axes_1">
   <g id="patch_2">
    <path d="M 46.64 174.04 
L 274.68 174.04 
L 274.68 14.76 
L 46.64 14.76 
z
" style="fill:none;"/>
   </g>
   <g id="matplotlib.axis_1">
    <g id="xtick_1">
     <g id="line2d_1">
      <defs>
       <path d="M 0 0 
L 0 3.5 
" id="me43559e3c2" style="stroke:#000000;stroke-width:0.8;"/>
      </defs>
      <g>
       <use style="stroke:#000000;stroke-width:0.8;" x="80.34176" xlink:href="#me43559e3c2" y="174.04"/>
      </g>
     </g>
     <g id="text_1">
      <!-- −4 -->
      <defs>
       <path d="M 10.59375 35.5 
L 73.1875 35.5 
L 73.1875 27.203125 
L 10.59375 27.203125 
z
" id="DejaVuSans-2212"/>
       <path d="M 37.796875 64.3125 
L 12.890625 25.390625 
L 37.796875 25.390625 
z
M 35.203125 72.90625 
L 47.609375 72.90625 
L 47.609375 25.390625 
L 58.015625 25.390625 
L 58.015625 17.1875 
L 47.609375 17.1875 
L 47.609375 0 
L 37.796875 0 
L 37.796875 17.1875 
L 4.890625 17.1875 
L 4.890625 26.703125 
z
" id="DejaVuSans-34"/>
      </defs>
      <g transform="translate(72.970666 188.638438)scale(0.1 -0.1)">
       <use xlink:href="#DejaVuSans-2212"/>
       <use x="83.789062" xlink:href="#DejaVuSans-34"/>
      </g>
     </g>
    </g>
    <g id="xtick_2">
     <g id="line2d_2">
      <g>
       <use style="stroke:#000000;stroke-width:0.8;" x="127.107922" xlink:href="#me43559e3c2" y="174.04"/>
      </g>
     </g>
     <g id="text_2">
      <!-- −2 -->
      <defs>
       <path d="M 19.1875 8.296875 
L 53.609375 8.296875 
L 53.609375 0 
L 7.328125 0 
L 7.328125 8.296875 
Q 12.9375 14.109375 22.625 23.890625 
Q 32.328125 33.6875 34.8125 36.53125 
Q 39.546875 41.84375 41.421875 45.53125 
Q 43.3125 49.21875 43.3125 52.78125 
Q 43.3125 58.59375 39.234375 62.25 
Q 35.15625 65.921875 28.609375 65.921875 
Q 23.96875 65.921875 18.8125 64.3125 
Q 13.671875 62.703125 7.8125 59.421875 
L 7.8125 69.390625 
Q 13.765625 71.78125 18.9375 73 
Q 24.125 74.21875 28.421875 74.21875 
Q 39.75 74.21875 46.484375 68.546875 
Q 53.21875 62.890625 53.21875 53.421875 
Q 53.21875 48.921875 51.53125 44.890625 
Q 49.859375 40.875 45.40625 35.40625 
Q 44.1875 33.984375 37.640625 27.21875 
Q 31.109375 20.453125 19.1875 8.296875 
z
" id="DejaVuSans-32"/>
      </defs>
      <g transform="translate(119.736828 188.638438)scale(0.1 -0.1)">
       <use xlink:href="#DejaVuSans-2212"/>
       <use x="83.789062" xlink:href="#DejaVuSans-32"/>
      </g>
     </g>
    </g>
    <g id="xtick_3">
     <g id="line2d_3">
      <g>
       <use style="stroke:#000000;stroke-width:0.8;" x="173.874084" xlink:href="#me43559e3c2" y="174.04"/>
      </g>
     </g>
     <g id="text_3">
      <!-- 0 -->
      <defs>
       <path d="M 31.78125 66.40625 
Q 24.171875 66.40625 20.328125 58.90625 
Q 16.5 51.421875 16.5 36.375 
Q 16.5 21.390625 20.328125 13.890625 
Q 24.171875 6.390625 31.78125 6.390625 
Q 39.453125 6.390625 43.28125 13.890625 
Q 47.125 21.390625 47.125 36.375 
Q 47.125 51.421875 43.28125 58.90625 
Q 39.453125 66.40625 31.78125 66.40625 
z
M 31.78125 74.21875 
Q 44.046875 74.21875 50.515625 64.515625 
Q 56.984375 54.828125 56.984375 36.375 
Q 56.984375 17.96875 50.515625 8.265625 
Q 44.046875 -1.421875 31.78125 -1.421875 
Q 19.53125 -1.421875 13.0625 8.265625 
Q 6.59375 17.96875 6.59375 36.375 
Q 6.59375 54.828125 13.0625 64.515625 
Q 19.53125 74.21875 31.78125 74.21875 
z
" id="DejaVuSans-30"/>
      </defs>
      <g transform="translate(170.692834 188.638438)scale(0.1 -0.1)">
       <use xlink:href="#DejaVuSans-30"/>
      </g>
     </g>
    </g>
    <g id="xtick_4">
     <g id="line2d_4">
      <g>
       <use style="stroke:#000000;stroke-width:0.8;" x="220.640245" xlink:href="#me43559e3c2" y="174.04"/>
      </g>
     </g>
     <g id="text_4">
      <!-- 2 -->
      <g transform="translate(217.458995 188.638438)scale(0.1 -0.1)">
       <use xlink:href="#DejaVuSans-32"/>
      </g>
     </g>
    </g>
    <g id="xtick_5">
     <g id="line2d_5">
      <g>
       <use style="stroke:#000000;stroke-width:0.8;" x="267.406407" xlink:href="#me43559e3c2" y="174.04"/>
      </g>
     </g>
     <g id="text_5">
      <!-- 4 -->
      <g transform="translate(264.225157 188.638438)scale(0.1 -0.1)">
       <use xlink:href="#DejaVuSans-34"/>
      </g>
     </g>
    </g>
    <g id="text_6">
     <!-- $z$ -->
     <defs>
      <path d="M 4.890625 -1.125 
Q 4.109375 -1.125 4.109375 -0.203125 
Q 4.109375 0.296875 4.296875 0.484375 
Q 6.984375 5.125 10.765625 9.34375 
Q 14.546875 13.578125 19.359375 17.890625 
Q 24.171875 22.21875 29.03125 26.5625 
Q 33.890625 30.90625 36.921875 34.28125 
L 36.53125 34.28125 
Q 34.328125 34.28125 30.078125 35.6875 
Q 25.828125 37.109375 23.390625 37.109375 
Q 20.75 37.109375 18.25 35.953125 
Q 15.765625 34.8125 15.09375 32.421875 
Q 14.9375 31.6875 14.3125 31.6875 
L 13.09375 31.6875 
Q 12.3125 31.6875 12.3125 32.71875 
L 12.3125 33.015625 
Q 13.09375 35.9375 14.875 38.46875 
Q 16.65625 41.015625 19.265625 42.59375 
Q 21.875 44.1875 24.703125 44.1875 
Q 26.703125 44.1875 28.015625 43.28125 
Q 29.34375 42.390625 31.09375 40.484375 
Q 32.859375 38.578125 33.953125 37.75 
Q 35.0625 36.921875 36.71875 36.921875 
Q 38.921875 36.921875 40.65625 38.921875 
Q 42.390625 40.921875 44.09375 43.890625 
Q 44.390625 44.1875 44.828125 44.1875 
L 46 44.1875 
Q 46.34375 44.1875 46.5625 43.9375 
Q 46.78125 43.703125 46.78125 43.3125 
Q 46.78125 42.96875 46.578125 42.671875 
Q 43.890625 38.03125 40.296875 34 
Q 36.71875 29.984375 30.921875 24.78125 
Q 25.140625 19.578125 21.15625 15.984375 
Q 17.1875 12.40625 13.71875 8.59375 
Q 14.5 8.796875 15.828125 8.796875 
Q 18.265625 8.796875 22.484375 7.390625 
Q 26.703125 6 29 6 
Q 31.5 6 34.03125 7.078125 
Q 36.578125 8.15625 38.421875 10.109375 
Q 40.28125 12.0625 40.921875 14.59375 
Q 41.15625 15.28125 41.703125 15.28125 
L 42.921875 15.28125 
Q 43.3125 15.28125 43.546875 14.96875 
Q 43.796875 14.65625 43.796875 14.3125 
Q 43.796875 14.203125 43.703125 14.015625 
Q 42.78125 10.203125 40.484375 6.765625 
Q 38.1875 3.328125 34.84375 1.09375 
Q 31.5 -1.125 27.6875 -1.125 
Q 25.78125 -1.125 24.453125 -0.234375 
Q 23.140625 0.640625 21.359375 2.5625 
Q 19.578125 4.5 18.453125 5.34375 
Q 17.328125 6.203125 15.71875 6.203125 
Q 10.75 6.203125 6.78125 -0.78125 
Q 6.453125 -1.125 6.109375 -1.125 
z
" id="Cmmi10-7a"/>
     </defs>
     <g transform="translate(158.31 202.316563)scale(0.1 -0.1)">
      <use transform="translate(0 0.8125)" xlink:href="#Cmmi10-7a"/>
     </g>
    </g>
   </g>
   <g id="matplotlib.axis_2">
    <g id="ytick_1">
     <g id="line2d_6">
      <defs>
       <path d="M 0 0 
L -3.5 0 
" id="md4bd6a979b" style="stroke:#000000;stroke-width:0.8;"/>
      </defs>
      <g>
       <use style="stroke:#000000;stroke-width:0.8;" x="46.64" xlink:href="#md4bd6a979b" y="174.04"/>
      </g>
     </g>
     <g id="text_7">
      <!-- −4 -->
      <g transform="translate(24.897813 177.839219)scale(0.1 -0.1)">
       <use xlink:href="#DejaVuSans-2212"/>
       <use x="83.789062" xlink:href="#DejaVuSans-34"/>
      </g>
     </g>
    </g>
    <g id="ytick_2">
     <g id="line2d_7">
      <g>
       <use style="stroke:#000000;stroke-width:0.8;" x="46.64" xlink:href="#md4bd6a979b" y="134.22"/>
      </g>
     </g>
     <g id="text_8">
      <!-- −2 -->
      <g transform="translate(24.897813 138.019219)scale(0.1 -0.1)">
       <use xlink:href="#DejaVuSans-2212"/>
       <use x="83.789062" xlink:href="#DejaVuSans-32"/>
      </g>
     </g>
    </g>
    <g id="ytick_3">
     <g id="line2d_8">
      <g>
       <use style="stroke:#000000;stroke-width:0.8;" x="46.64" xlink:href="#md4bd6a979b" y="94.4"/>
      </g>
     </g>
     <g id="text_9">
      <!-- 0 -->
      <g transform="translate(33.2775 98.199219)scale(0.1 -0.1)">
       <use xlink:href="#DejaVuSans-30"/>
      </g>
     </g>
    </g>
    <g id="ytick_4">
     <g id="line2d_9">
      <g>
       <use style="stroke:#000000;stroke-width:0.8;" x="46.64" xlink:href="#md4bd6a979b" y="54.58"/>
      </g>
     </g>
     <g id="text_10">
      <!-- 2 -->
      <g transform="translate(33.2775 58.379219)scale(0.1 -0.1)">
       <use xlink:href="#DejaVuSans-32"/>
      </g>
     </g>
    </g>
    <g id="ytick_5">
     <g id="line2d_10">
      <g>
       <use style="stroke:#000000;stroke-width:0.8;" x="46.64" xlink:href="#md4bd6a979b" y="14.76"/>
      </g>
     </g>
     <g id="text_11">
      <!-- 4 -->
      <g transform="translate(33.2775 18.559219)scale(0.1 -0.1)">
       <use xlink:href="#DejaVuSans-34"/>
      </g>
     </g>
    </g>
    <g id="text_12">
     <!-- $y$ -->
     <defs>
      <path d="M 8.40625 -14.3125 
Q 10.5 -17.921875 15.71875 -17.921875 
Q 20.453125 -17.921875 23.921875 -14.59375 
Q 27.390625 -11.28125 29.515625 -6.5625 
Q 31.640625 -1.859375 32.8125 3.078125 
Q 28.375 -1.125 23.1875 -1.125 
Q 19.234375 -1.125 16.453125 0.234375 
Q 13.671875 1.609375 12.125 4.3125 
Q 10.59375 7.03125 10.59375 10.890625 
Q 10.59375 14.15625 11.46875 17.59375 
Q 12.359375 21.046875 13.9375 25.265625 
Q 15.53125 29.5 16.703125 32.625 
Q 18.015625 36.28125 18.015625 38.625 
Q 18.015625 41.609375 15.828125 41.609375 
Q 11.859375 41.609375 9.296875 37.53125 
Q 6.734375 33.453125 5.515625 28.421875 
Q 5.328125 27.78125 4.6875 27.78125 
L 3.515625 27.78125 
Q 2.6875 27.78125 2.6875 28.71875 
L 2.6875 29 
Q 4.296875 34.96875 7.609375 39.578125 
Q 10.9375 44.1875 16.015625 44.1875 
Q 19.578125 44.1875 22.046875 41.84375 
Q 24.515625 39.5 24.515625 35.890625 
Q 24.515625 34.03125 23.6875 31.984375 
Q 23.25 30.765625 21.6875 26.65625 
Q 20.125 22.5625 19.28125 19.875 
Q 18.453125 17.1875 17.921875 14.59375 
Q 17.390625 12.015625 17.390625 9.421875 
Q 17.390625 6.109375 18.796875 3.8125 
Q 20.21875 1.515625 23.296875 1.515625 
Q 29.5 1.515625 34.421875 9.078125 
L 42 39.890625 
Q 42.328125 41.21875 43.546875 42.15625 
Q 44.78125 43.109375 46.1875 43.109375 
Q 47.40625 43.109375 48.3125 42.328125 
Q 49.21875 41.546875 49.21875 40.28125 
Q 49.21875 39.703125 49.125 39.5 
L 39.203125 -0.296875 
Q 37.890625 -5.421875 34.375 -10.109375 
Q 30.859375 -14.796875 25.90625 -17.65625 
Q 20.953125 -20.515625 15.578125 -20.515625 
Q 12.984375 -20.515625 10.4375 -19.5 
Q 7.90625 -18.5 6.34375 -16.5 
Q 4.78125 -14.5 4.78125 -11.8125 
Q 4.78125 -9.078125 6.390625 -7.078125 
Q 8.015625 -5.078125 10.6875 -5.078125 
Q 12.3125 -5.078125 13.40625 -6.078125 
Q 14.5 -7.078125 14.5 -8.6875 
Q 14.5 -10.984375 12.78125 -12.6875 
Q 11.078125 -14.40625 8.796875 -14.40625 
Q 8.6875 -14.359375 8.59375 -14.328125 
Q 8.5 -14.3125 8.40625 -14.3125 
z
" id="Cmmi10-79"/>
     </defs>
     <g transform="translate(18.797812 96.9)rotate(-90)scale(0.1 -0.1)">
      <use transform="translate(0 0.8125)" xlink:href="#Cmmi10-79"/>
     </g>
    </g>
   </g>
   <g id="line2d_11">
    <path clip-path="url(#pc089154ae0)" d="M 57.005455 177.625816 
L 57.05223 136.155951 
L 57.145781 115.422542 
L 57.379659 103.908004 
L 57.660312 100.228046 
L 57.98774 98.476309 
L 58.40872 97.39198 
L 58.923251 96.704368 
L 59.578108 96.228494 
L 60.466843 95.879736 
L 61.776557 95.623697 
L 63.83468 95.470303 
L 66.781538 95.483944 
L 69.821946 95.711356 
L 72.113947 96.093862 
L 73.75109 96.58295 
L 74.967253 97.173339 
L 75.902763 97.87259 
L 76.651172 98.707143 
L 77.306029 99.793682 
L 77.867335 101.200885 
L 78.33509 102.991623 
L 78.75607 105.523898 
L 79.130274 109.271169 
L 79.457703 115.173257 
L 79.738356 125.354101 
L 79.925458 139.785708 
L 80.065784 163.465962 
L 80.11256 177.806453 
M 80.580315 11.812281 
L 80.814193 52.044558 
L 81.094846 67.318373 
L 81.46905 75.830103 
L 81.89003 80.463621 
L 82.357785 83.317843 
L 82.872315 85.213175 
L 83.480397 86.621572 
L 84.135254 87.599736 
L 84.883663 88.332201 
L 85.772397 88.886517 
L 86.801459 89.265938 
L 88.064398 89.48442 
L 89.514439 89.498387 
L 91.011255 89.292396 
L 92.461296 88.875187 
L 93.771011 88.275833 
L 94.940399 87.501927 
L 95.96946 86.559378 
L 96.90497 85.396725 
L 97.74693 83.986152 
L 98.495338 82.303039 
L 99.196971 80.171862 
L 99.851828 77.435955 
L 100.45991 73.859586 
L 101.021216 69.073355 
L 101.488971 63.19634 
L 101.909951 55.264241 
L 102.284155 44.266963 
L 102.611584 28.522757 
L 102.892237 5.113291 
L 102.943366 -1 
M 104.52938 195.282853 
L 104.903584 164.798289 
L 105.324564 147.63005 
L 105.792319 136.835404 
L 106.306849 129.563202 
L 106.868156 124.434889 
L 107.476237 120.707717 
L 108.131095 117.950032 
L 108.832727 115.89732 
L 109.581136 114.381967 
L 110.329544 113.348413 
L 111.077952 112.668809 
L 111.82636 112.266244 
L 112.621544 112.090282 
L 113.416728 112.142707 
L 114.258687 112.431206 
L 115.100647 112.958961 
L 115.989381 113.792336 
L 116.878116 114.946674 
L 117.766851 116.484905 
L 118.60881 118.384642 
L 119.45077 120.843514 
L 120.245953 123.853323 
L 121.041137 127.790316 
L 121.789545 132.709684 
L 122.491178 138.907744 
L 123.146035 146.812511 
L 123.754117 157.059874 
L 124.315423 170.629323 
L 124.829954 189.10023 
L 124.970281 195.709436 
M 129.887325 -1 
L 130.489792 13.310165 
L 131.144649 23.770398 
L 131.846282 31.500266 
L 132.547914 36.96589 
L 133.296323 41.134623 
L 134.044731 44.094613 
L 134.746364 46.050846 
L 135.447996 47.380551 
L 136.056078 48.107403 
L 136.617384 48.468467 
L 137.131915 48.557986 
L 137.646446 48.427096 
L 138.207752 48.037884 
L 138.815834 47.32398 
L 139.470691 46.201751 
L 140.219099 44.433764 
L 140.967507 42.080876 
L 141.762691 38.821697 
L 142.557875 34.594839 
L 143.353059 29.116962 
L 144.148243 21.952677 
L 144.896651 13.052981 
L 145.598284 1.959057 
L 145.754669 -1 
M 155.935673 195.840576 
L 156.730857 186.304631 
L 157.52604 179.337558 
L 158.321224 174.207654 
L 159.116408 170.463749 
L 159.864816 167.948271 
L 160.566449 166.336493 
L 161.174531 165.458413 
L 161.689061 165.06545 
L 162.156817 164.976661 
L 162.577796 165.112862 
L 163.045551 165.506186 
L 163.560082 166.241205 
L 164.168164 167.541017 
L 164.823021 169.511813 
L 165.524654 172.373136 
L 166.273062 176.448204 
L 167.02147 181.850356 
L 167.769879 189.003601 
L 168.331185 195.90873 
M 178.365383 -1 
L 179.089554 12.95693 
L 179.884737 24.304733 
L 180.726697 33.35375 
L 181.615432 40.680852 
L 182.597717 46.952977 
L 183.626779 52.083445 
L 184.702616 56.324727 
L 185.825228 59.861036 
L 186.994616 62.829628 
L 188.210779 65.334602 
L 189.520494 67.526803 
L 190.876984 69.372015 
L 192.327025 70.9732 
L 193.870617 72.347576 
L 195.50776 73.511749 
L 197.28523 74.503765 
L 199.203026 75.319535 
L 201.307924 75.968834 
L 203.553149 76.428426 
L 205.985476 76.699036 
L 208.604905 76.762896 
L 211.317885 76.607135 
L 214.124416 76.225029 
L 216.977722 75.612646 
L 219.831029 74.771553 
L 222.63756 73.710073 
L 225.35054 72.445895 
L 227.969969 70.981208 
L 230.495847 69.316079 
L 232.928174 67.449606 
L 235.313725 65.336491 
L 237.605725 63.008349 
L 239.85095 60.407156 
L 242.049399 57.51173 
L 244.201073 54.299241 
L 246.305971 50.745368 
L 248.364094 46.824468 
L 250.375441 42.509774 
L 252.386789 37.654041 
L 254.35136 32.319366 
L 256.315932 26.321507 
L 258.233728 19.741527 
L 260.151524 12.349624 
L 262.022545 4.251624 
L 263.129818 -1 
L 263.129818 -1 
" style="fill:none;stroke:#1f77b4;stroke-linecap:square;stroke-width:1.5;"/>
   </g>
   <g id="patch_3">
    <path d="M 46.64 174.04 
L 46.64 14.76 
" style="fill:none;stroke:#000000;stroke-linecap:square;stroke-linejoin:miter;stroke-width:0.8;"/>
   </g>
   <g id="patch_4">
    <path d="M 274.68 174.04 
L 274.68 14.76 
" style="fill:none;stroke:#000000;stroke-linecap:square;stroke-linejoin:miter;stroke-width:0.8;"/>
   </g>
   <g id="patch_5">
    <path d="M 46.64 174.04 
L 274.68 174.04 
" style="fill:none;stroke:#000000;stroke-linecap:square;stroke-linejoin:miter;stroke-width:0.8;"/>
   </g>
   <g id="patch_6">
    <path d="M 46.64 14.76 
L 274.68 14.76 
" style="fill:none;stroke:#000000;stroke-linecap:square;stroke-linejoin:miter;stroke-width:0.8;"/>
   </g>
  </g>
 </g>
 <defs>
  <clipPath id="pc089154ae0">
   <rect height="159.28" width="228.04" x="46.64" y="14.76"/>
  </clipPath>
 </defs>
</svg>
